<svg width="41" height="34" viewBox="0 0 41 34" fill="none" xmlns="http://www.w3.org/2000/svg">
<path fill-rule="evenodd" clip-rule="evenodd" d="M20.4746 0.985962C28.7466 0.991962 36.1746 6.78996 40.3466 16.498C40.5106 16.876 40.5106 17.304 40.3466 17.682C36.1766 27.392 28.7466 33.19 20.4746 33.196H20.4626C12.1906 33.19 4.76262 27.392 0.590616 17.682C0.428616 17.304 0.428616 16.876 0.590616 16.498C4.76262 6.78996 12.1926 0.991962 20.4626 0.985962H20.4746ZM20.4686 3.98596C13.5966 3.98796 7.32862 8.87396 3.60862 17.09C7.32862 25.308 13.5946 30.194 20.4686 30.196C27.3426 30.194 33.6086 25.308 37.3286 17.09C33.6086 8.87396 27.3426 3.98796 20.4686 3.98596ZM20.468 9.26756C24.782 9.26756 28.292 12.7776 28.292 17.0916C28.292 21.4036 24.782 24.9116 20.468 24.9116C16.154 24.9116 12.646 21.4036 12.646 17.0916C12.646 12.7776 16.154 9.26756 20.468 9.26756ZM20.468 12.2676C17.808 12.2676 15.646 14.4316 15.646 17.0916C15.646 19.7496 17.808 21.9116 20.468 21.9116C23.128 21.9116 25.292 19.7496 25.292 17.0916C25.292 14.4316 23.128 12.2676 20.468 12.2676Z" fill="#ADA4A5"/>
</svg>
