<svg width="20" height="20" viewBox="0 0 20 20" fill="none" xmlns="http://www.w3.org/2000/svg">
<path d="M6.48002 5.0957H13.5109C14.0975 5.0957 14.5742 5.57237 14.5742 6.15904V7.33237C14.5742 7.7632 14.3084 8.29487 14.0425 8.5607L11.7509 10.5865C11.43 10.8524 11.2192 11.384 11.2192 11.8149V14.1065C11.2192 14.4274 11.0084 14.849 10.7425 15.014L10 15.4815C9.30335 15.9124 8.35002 15.4265 8.35002 14.574V11.7507C8.35002 11.3749 8.13919 10.8982 7.91919 10.6324L5.89335 8.49654C5.62752 8.23987 5.41669 7.75404 5.41669 7.4332V6.21404C5.41669 5.57237 5.89335 5.0957 6.48002 5.0957Z" stroke="#8C9092" stroke-miterlimit="10" stroke-linecap="round" stroke-linejoin="round"/>
<path d="M7.24998 19.1668H12.75C17.3333 19.1668 19.1666 17.3335 19.1666 12.7502V7.25016C19.1666 2.66683 17.3333 0.833496 12.75 0.833496H7.24998C2.66665 0.833496 0.833313 2.66683 0.833313 7.25016V12.7502C0.833313 17.3335 2.66665 19.1668 7.24998 19.1668Z" stroke="#8C9092" stroke-linecap="round" stroke-linejoin="round"/>
</svg>
