<svg width="47" height="47" viewBox="0 0 47 47" fill="none" xmlns="http://www.w3.org/2000/svg">
<path d="M17.625 19.5833C18.6638 19.5833 19.66 19.1707 20.3945 18.4362C21.129 17.7017 21.5417 16.7054 21.5417 15.6667C21.5417 14.6279 21.129 13.6317 20.3945 12.8972C19.66 12.1626 18.6638 11.75 17.625 11.75C16.5862 11.75 15.59 12.1626 14.8555 12.8972C14.121 13.6317 13.7083 14.6279 13.7083 15.6667C13.7083 16.7054 14.121 17.7017 14.8555 18.4362C15.59 19.1707 16.5862 19.5833 17.625 19.5833Z" stroke="#464646" stroke-width="1.5" stroke-linecap="round" stroke-linejoin="round"/>
<path d="M25.4583 3.9165H17.625C7.83333 3.9165 3.91666 7.83317 3.91666 17.6248V29.3748C3.91666 39.1665 7.83333 43.0832 17.625 43.0832H29.375C39.1667 43.0832 43.0833 39.1665 43.0833 29.3748V19.5832" stroke="#464646" stroke-width="1.5" stroke-linecap="round" stroke-linejoin="round"/>
<path d="M30.8438 9.79167H41.6146M36.2292 15.1771V4.40625" stroke="#464646" stroke-width="1.5" stroke-linecap="round"/>
<path d="M5.22875 37.1104L14.8833 30.6283C16.4304 29.5904 18.6629 29.7079 20.0533 30.9025L20.6996 31.4704C22.2271 32.7825 24.6946 32.7825 26.2221 31.4704L34.3688 24.4792C35.8963 23.1671 38.3638 23.1671 39.8913 24.4792L43.0833 27.2208" stroke="#464646" stroke-width="1.5" stroke-linecap="round" stroke-linejoin="round"/>
</svg>
