<svg width="20" height="17" viewBox="0 0 20 17" fill="none" xmlns="http://www.w3.org/2000/svg">
<path fill-rule="evenodd" clip-rule="evenodd" d="M9.88609 0.583313H14.9254C17.445 0.583313 19.5 2.16665 19.5 4.09831V12.9016C19.5 14.8412 17.445 16.4166 14.9047 16.4166H9.87576C7.35611 16.4166 5.29083 14.8412 5.29083 12.9096V9.10956H11.6932L10.041 10.3762C9.73119 10.6137 9.73119 11.0016 10.041 11.2391C10.1959 11.3579 10.4024 11.4133 10.6089 11.4133C10.8051 11.4133 11.0117 11.3579 11.1666 11.2391L14.1819 8.9354C14.3368 8.82456 14.4194 8.66623 14.4194 8.49998C14.4194 8.34165 14.3368 8.18331 14.1819 8.07248L11.1666 5.76873C10.8568 5.53123 10.3508 5.53123 10.041 5.76873C9.73119 6.00623 9.73119 6.39415 10.041 6.63165L11.6932 7.8904H5.29083V4.10623C5.29083 2.16665 7.35611 0.583313 9.88609 0.583313ZM0.5 8.4999C0.5 8.1674 0.855229 7.89032 1.2815 7.89032H5.29052V9.10948H1.2815C0.855229 9.10948 0.5 8.84032 0.5 8.4999Z" fill="white"/>
</svg>
