<svg width="43" height="41" viewBox="0 0 43 41" fill="none" xmlns="http://www.w3.org/2000/svg">
<path d="M19.8892 0.483398C24.8543 0.483398 28.9037 4.4634 28.9037 9.3634V18.9434H16.6944C15.8194 18.9434 15.1275 19.6234 15.1275 20.4834C15.1275 21.3234 15.8194 22.0234 16.6944 22.0234H28.9037V31.5834C28.9037 36.4834 24.8543 40.4834 19.8485 40.4834H9.93857C4.9531 40.4834 0.903687 36.5034 0.903687 31.6034V9.3834C0.903687 4.4634 4.97345 0.483398 9.95892 0.483398H19.8892ZM33.9841 13.5838C34.5841 12.9638 35.5641 12.9638 36.1641 13.5638L42.0041 19.3838C42.3041 19.6838 42.4641 20.0638 42.4641 20.4838C42.4641 20.8838 42.3041 21.2838 42.0041 21.5638L36.1641 27.3838C35.8641 27.6838 35.4641 27.8438 35.0841 27.8438C34.6841 27.8438 34.2841 27.6838 33.9841 27.3838C33.3841 26.7838 33.3841 25.8038 33.9841 25.2038L37.1841 22.0238L28.9037 22.0234V18.9434L37.1841 18.9438L33.9841 15.7638C33.3841 15.1638 33.3841 14.1838 33.9841 13.5838Z" fill="black"/>
</svg>
