<svg width="25" height="20" viewBox="0 0 20 15" fill="none" xmlns="http://www.w3.org/2000/svg">
<path d="M19 2.0105H1C0.59 2.0105 0.25 1.57133 0.25 1.04175C0.25 0.512165 0.59 0.072998 1 0.072998H19C19.41 0.072998 19.75 0.512165 19.75 1.04175C19.75 1.57133 19.41 2.0105 19 2.0105ZM19 8.46883H1C0.59 8.46883 0.25 8.02967 0.25 7.50008C0.25 6.9705 0.59 6.53133 1 6.53133H19C19.41 6.53133 19.75 6.9705 19.75 7.50008C19.75 8.02967 19.41 8.46883 19 8.46883ZM19 14.9272H1C0.59 14.9272 0.25 14.488 0.25 13.9584C0.25 13.4288 0.59 12.9897 1 12.9897H19C19.41 12.9897 19.75 13.4288 19.75 13.9584C19.75 14.488 19.41 14.9272 19 14.9272Z" fill="currentColor"/>
</svg>
