<svg width="17" height="17" viewBox="0 0 17 17" fill="none" xmlns="http://www.w3.org/2000/svg">
<path d="M15.02 1.97808C13.23 0.178078 11.48 0.138078 9.64 1.97808L8.51 3.09808C8.41 3.19808 8.38 3.33808 8.42 3.46808C9.12 5.91808 11.08 7.87808 13.53 8.57808C13.56 8.58808 13.61 8.58808 13.64 8.58808C13.74 8.58808 13.84 8.54808 13.91 8.47808L15.02 7.35808C15.93 6.44808 16.38 5.57808 16.38 4.68808C16.38 3.78808 15.93 2.89808 15.02 1.97808ZM11.86 9.42008C11.59 9.29008 11.33 9.16008 11.09 9.01008C10.89 8.89008 10.69 8.76008 10.5 8.62008C10.34 8.52008 10.16 8.37008 9.98 8.22008C9.96 8.21008 9.9 8.16008 9.82 8.08008C9.51 7.83008 9.18 7.49008 8.87 7.12008C8.85 7.10008 8.79 7.04008 8.74 6.95008C8.64 6.84008 8.49 6.65008 8.36 6.44008C8.25 6.30008 8.12 6.10008 8 5.89008C7.85 5.64008 7.72 5.39008 7.6 5.13008C7.47 4.85008 7.37 4.59008 7.28 4.34008L1.9 9.72008C1.55 10.0701 1.21 10.7301 1.14 11.2201L0.709999 14.2001C0.619999 14.8301 0.789999 15.4201 1.18 15.8101C1.51 16.1401 1.96 16.3101 2.46 16.3101C2.57 16.3101 2.68 16.3001 2.79 16.2901L5.76 15.8701C6.25 15.8001 6.91 15.4701 7.26 15.1101L12.64 9.73008C12.39 9.65008 12.14 9.54008 11.86 9.42008Z" fill="white"/>
</svg>
