<svg width="161" height="104" viewBox="0 0 161 104" fill="none" xmlns="http://www.w3.org/2000/svg">
<mask id="mask0_245_1813" style="mask-type:luminance" maskUnits="userSpaceOnUse" x="0" y="0" width="161" height="99">
<path d="M0 0H117V98.865H0V0Z" fill="white"/>
</mask>
<g mask="url(#mask0_245_1813)">
<path d="M68.5364 29.963C51.218 9.23816 33.8477 28.2111 33.8477 28.2111L27.9642 21.1789C35.5448 14.753 43.1255 10.268 53.0126 11.2978C62.8997 12.3277 69.5967 16.6238 75.0445 23.6255C80.4923 30.6272 87.8109 34.3627 96.3696 33.1165C104.931 31.8734 110.385 23.6438 110.385 23.6438L116.988 29.9051C112.335 35.6942 106.354 41.1968 95.4342 42.5253C84.5173 43.8537 74.813 36.3127 74.813 36.3127L6.21867 98.8376L0 92.0248L68.5364 29.963ZM80.6234 11.2765C79.9013 18.5555 86.187 25.2221 93.5604 25.0057C100.017 24.8138 105.757 19.3934 105.745 12.5349C105.73 5.66722 99.9588 0.195032 93.3075 0.103627C86.842 0.0152666 81.2388 5.03652 80.6234 11.2765ZM58.1252 61.0289C58.6554 61.4494 66.6504 67.9971 65.5383 78.3139C64.609 86.9457 58.0277 91.5617 57.0558 92.2168C59.1977 94.3983 61.3397 96.5768 63.4816 98.7584C63.4816 98.7584 74.4138 90.8182 74.9592 77.348C75.5046 63.8808 65.0325 54.9931 65.0325 54.9931L58.1252 61.0289Z" fill="url(#paint0_linear_245_1813)"/>
<path d="M68.5364 29.963C51.218 9.23816 33.8477 28.2111 33.8477 28.2111L27.9642 21.1789C35.5448 14.753 43.1255 10.268 53.0126 11.2978C62.8997 12.3277 69.5967 16.6238 75.0445 23.6255C80.4923 30.6272 87.8109 34.3627 96.3696 33.1165C104.931 31.8734 110.385 23.6438 110.385 23.6438L116.988 29.9051C112.335 35.6942 106.354 41.1968 95.4342 42.5253C84.5173 43.8537 74.813 36.3127 74.813 36.3127L6.21867 98.8376L0 92.0248L68.5364 29.963ZM80.6234 11.2765C79.9013 18.5555 86.187 25.2221 93.5604 25.0057C100.017 24.8138 105.757 19.3934 105.745 12.5349C105.73 5.66722 99.9588 0.195032 93.3075 0.103627C86.842 0.0152666 81.2388 5.03652 80.6234 11.2765ZM58.1252 61.0289C58.6554 61.4494 66.6504 67.9971 65.5383 78.3139C64.609 86.9457 58.0277 91.5617 57.0558 92.2168C59.1977 94.3983 61.3397 96.5768 63.4816 98.7584C63.4816 98.7584 74.4138 90.8182 74.9592 77.348C75.5046 63.8808 65.0325 54.9931 65.0325 54.9931L58.1252 61.0289Z" fill="url(#paint1_linear_245_1813)"/>
</g>
<mask id="mask1_245_1813" style="mask-type:luminance" maskUnits="userSpaceOnUse" x="44" y="5" width="161" height="99">
<path d="M44 5H161V103.865H44V5Z" fill="white"/>
</mask>
<g mask="url(#mask1_245_1813)">
<path d="M112.536 34.963C95.218 14.2382 77.8477 33.211 77.8477 33.211L71.9642 26.1789C79.5448 19.753 87.1255 15.268 97.0126 16.2978C106.9 17.3277 113.597 21.6238 119.045 28.6255C124.492 35.6272 131.811 39.3627 140.37 38.1165C148.931 36.8734 154.385 28.6438 154.385 28.6438L160.988 34.9051C156.335 40.6942 150.354 46.1968 139.434 47.5253C128.517 48.8537 118.813 41.3127 118.813 41.3127L50.2187 103.838L44 97.0248L112.536 34.963ZM124.623 16.2765C123.901 23.5555 130.187 30.2221 137.56 30.0057C144.017 29.8138 149.757 24.3934 149.745 17.5349C149.73 10.6672 143.959 5.19503 137.308 5.10363C130.842 5.01527 125.239 10.0365 124.623 16.2765ZM102.125 66.0289C102.655 66.4494 110.65 72.9971 109.538 83.3139C108.609 91.9457 102.028 96.5617 101.056 97.2168C103.198 99.3983 105.34 101.577 107.482 103.758C107.482 103.758 118.414 95.8182 118.959 82.348C119.505 68.8808 109.033 59.9931 109.033 59.9931L102.125 66.0289Z" fill="url(#paint2_linear_245_1813)"/>
<path d="M112.536 34.963C95.218 14.2382 77.8477 33.211 77.8477 33.211L71.9642 26.1789C79.5448 19.753 87.1255 15.268 97.0126 16.2978C106.9 17.3277 113.597 21.6238 119.045 28.6255C124.492 35.6272 131.811 39.3627 140.37 38.1165C148.931 36.8734 154.385 28.6438 154.385 28.6438L160.988 34.9051C156.335 40.6942 150.354 46.1968 139.434 47.5253C128.517 48.8537 118.813 41.3127 118.813 41.3127L50.2187 103.838L44 97.0248L112.536 34.963ZM124.623 16.2765C123.901 23.5555 130.187 30.2221 137.56 30.0057C144.017 29.8138 149.757 24.3934 149.745 17.5349C149.73 10.6672 143.959 5.19503 137.308 5.10363C130.842 5.01527 125.239 10.0365 124.623 16.2765ZM102.125 66.0289C102.655 66.4494 110.65 72.9971 109.538 83.3139C108.609 91.9457 102.028 96.5617 101.056 97.2168C103.198 99.3983 105.34 101.577 107.482 103.758C107.482 103.758 118.414 95.8182 118.959 82.348C119.505 68.8808 109.033 59.9931 109.033 59.9931L102.125 66.0289Z" fill="url(#paint3_linear_245_1813)"/>
</g>
<defs>
<linearGradient id="paint0_linear_245_1813" x1="58.4939" y1="0.102478" x2="58.4939" y2="98.8376" gradientUnits="userSpaceOnUse">
<stop stop-color="#C7F06F"/>
<stop offset="1" stop-color="#9D9999" stop-opacity="0"/>
</linearGradient>
<linearGradient id="paint1_linear_245_1813" x1="58.4939" y1="0.102478" x2="58.4939" y2="98.8376" gradientUnits="userSpaceOnUse">
<stop stop-color="#C7F06F"/>
<stop offset="1" stop-color="#9D9999" stop-opacity="0"/>
</linearGradient>
<linearGradient id="paint2_linear_245_1813" x1="102.494" y1="5.10248" x2="102.494" y2="103.838" gradientUnits="userSpaceOnUse">
<stop stop-color="#C7F06F"/>
<stop offset="1" stop-color="#9D9999" stop-opacity="0"/>
</linearGradient>
<linearGradient id="paint3_linear_245_1813" x1="102.494" y1="5.10248" x2="102.494" y2="103.838" gradientUnits="userSpaceOnUse">
<stop stop-color="#C7F06F"/>
<stop offset="1" stop-color="#9D9999" stop-opacity="0"/>
</linearGradient>
</defs>
</svg>
