<svg width="117" height="99" viewBox="0 0 117 99" fill="none" xmlns="http://www.w3.org/2000/svg">
<mask id="mask0_1_412" style="mask-type:luminance" maskUnits="userSpaceOnUse" x="0" y="0" width="117" height="99">
<path d="M0 0H117V98.865H0V0Z" fill="white"/>
</mask>
<g mask="url(#mask0_1_412)">
<path d="M68.5364 29.963C51.218 9.23816 33.8477 28.211 33.8477 28.211L27.9642 21.1789C35.5448 14.753 43.1255 10.268 53.0126 11.2978C62.8997 12.3277 69.5967 16.6238 75.0445 23.6255C80.4923 30.6272 87.8109 34.3627 96.3696 33.1165C104.931 31.8734 110.385 23.6438 110.385 23.6438L116.988 29.9051C112.335 35.6942 106.354 41.1968 95.4342 42.5253C84.5173 43.8537 74.813 36.3127 74.813 36.3127L6.21867 98.8376L0 92.0248L68.5364 29.963ZM80.6234 11.2765C79.9013 18.5555 86.187 25.2221 93.5604 25.0057C100.017 24.8138 105.757 19.3934 105.745 12.5349C105.73 5.66722 99.9588 0.195032 93.3075 0.103627C86.842 0.0152666 81.2388 5.03652 80.6234 11.2765ZM58.1252 61.0289C58.6554 61.4494 66.6504 67.9971 65.5383 78.3139C64.609 86.9457 58.0277 91.5617 57.0558 92.2168C59.1977 94.3983 61.3397 96.5768 63.4816 98.7584C63.4816 98.7584 74.4138 90.8182 74.9592 77.348C75.5046 63.8808 65.0325 54.9931 65.0325 54.9931L58.1252 61.0289Z" fill="url(#paint0_linear_1_412)"/>
<path d="M68.5364 29.963C51.218 9.23816 33.8477 28.211 33.8477 28.211L27.9642 21.1789C35.5448 14.753 43.1255 10.268 53.0126 11.2978C62.8997 12.3277 69.5967 16.6238 75.0445 23.6255C80.4923 30.6272 87.8109 34.3627 96.3696 33.1165C104.931 31.8734 110.385 23.6438 110.385 23.6438L116.988 29.9051C112.335 35.6942 106.354 41.1968 95.4342 42.5253C84.5173 43.8537 74.813 36.3127 74.813 36.3127L6.21867 98.8376L0 92.0248L68.5364 29.963ZM80.6234 11.2765C79.9013 18.5555 86.187 25.2221 93.5604 25.0057C100.017 24.8138 105.757 19.3934 105.745 12.5349C105.73 5.66722 99.9588 0.195032 93.3075 0.103627C86.842 0.0152666 81.2388 5.03652 80.6234 11.2765ZM58.1252 61.0289C58.6554 61.4494 66.6504 67.9971 65.5383 78.3139C64.609 86.9457 58.0277 91.5617 57.0558 92.2168C59.1977 94.3983 61.3397 96.5768 63.4816 98.7584C63.4816 98.7584 74.4138 90.8182 74.9592 77.348C75.5046 63.8808 65.0325 54.9931 65.0325 54.9931L58.1252 61.0289Z" fill="url(#paint1_linear_1_412)"/>
</g>
<defs>
<linearGradient id="paint0_linear_1_412" x1="58.4939" y1="0.102478" x2="58.4939" y2="98.8376" gradientUnits="userSpaceOnUse">
<stop stop-color="#C7F06F"/>
<stop offset="1" stop-color="#9D9999" stop-opacity="0"/>
</linearGradient>
<linearGradient id="paint1_linear_1_412" x1="58.4939" y1="0.102478" x2="58.4939" y2="98.8376" gradientUnits="userSpaceOnUse">
<stop stop-color="#C7F06F"/>
<stop offset="1" stop-color="#9D9999" stop-opacity="0"/>
</linearGradient>
</defs>
</svg>
