<svg width="26" height="24" viewBox="0 0 26 24" fill="none" xmlns="http://www.w3.org/2000/svg">
<path d="M25.4928 12.5136C25.2105 13.2668 24.5096 13.7533 23.708 13.7533H23.0559V23.1461C23.0559 23.6176 22.6738 24 22.202 24L17.0787 23.9998V18.0226C17.0787 15.6685 15.1633 13.7531 12.8092 13.7531C10.4551 13.7531 8.53977 15.6685 8.53977 18.0226V23.9998L3.41644 23.9996C2.9449 23.9996 2.5625 23.6174 2.5625 23.1457V13.7529H1.90927C1.10758 13.7529 0.406882 13.2666 0.12459 12.5142C-0.158134 11.7607 0.0495388 10.9328 0.6539 10.4053L10.6261 0.960637C11.8503 -0.198468 13.7673 -0.198468 14.9915 0.960637L24.9886 10.4271C25.5676 10.9314 25.7756 11.7602 25.4929 12.5134L25.4928 12.5136Z" fill="currentColor"/>
</svg>
