<svg width="27" height="24" viewBox="0 0 20 21" fill="none" xmlns="http://www.w3.org/2000/svg">
<path d="M10 10C11.3261 10 12.5979 9.47322 13.5355 8.53553C14.4732 7.59785 15 6.32608 15 5C15 3.67392 14.4732 2.40215 13.5355 1.46447C12.5979 0.526784 11.3261 0 10 0C8.67392 0 7.40215 0.526784 6.46447 1.46447C5.52679 2.40215 5 3.67392 5 5C5 6.32608 5.52679 7.59785 6.46447 8.53553C7.40215 9.47322 8.67392 10 10 10ZM10 12.5C4.99 12.5 0.910004 15.86 0.910004 20C0.910004 20.28 1.13 20.5 1.41 20.5H18.59C18.87 20.5 19.09 20.28 19.09 20C19.09 15.86 15.01 12.5 10 12.5Z" fill="currentColor"/>
</svg>
